<?xml version="1.0" standalone="no"?>
<!DOCTYPE svg PUBLIC "-//W3C//DTD SVG 20010904//EN"
 "http://www.w3.org/TR/2001/REC-SVG-20010904/DTD/svg10.dtd">
<svg version="1.0" xmlns="http://www.w3.org/2000/svg"
 width="500.000000pt" height="500.000000pt" viewBox="0 0 500.000000 500.000000"
 preserveAspectRatio="xMidYMid meet">

<g transform="translate(0.000000,500.000000) scale(0.100000,-0.100000)"
fill="#000000" stroke="none">
<path d="M1860 1865 c0 -218 1 -225 20 -225 19 0 20 7 20 205 l0 205 185 0
c178 0 185 1 185 20 0 19 -7 20 -205 20 l-205 0 0 -225z"/>
<path d="M2025 1948 c-76 -60 -72 -223 6 -263 15 -8 38 -15 49 -15 12 0 40
-13 63 -29 53 -35 102 -61 119 -61 7 0 19 9 26 20 11 18 9 21 -15 30 -16 6
-45 18 -66 27 l-38 16 25 26 c32 34 46 72 46 127 0 55 -20 106 -51 128 -36 25
-129 22 -164 -6z m127 -45 c41 -47 28 -164 -20 -181 -39 -13 -80 4 -89 36 -14
50 -8 120 12 142 23 25 76 27 97 3z"/>
<path d="M2408 1963 c45 -2 119 -2 165 0 45 1 8 3 -83 3 -91 0 -128 -2 -82 -3z"/>
<path d="M2432 1923 c59 -2 158 -2 220 0 62 1 14 3 -107 3 -121 0 -172 -2
-113 -3z"/>
<path d="M2950 1902 c-24 -8 -25 -10 -22 -82 2 -41 7 -78 10 -82 10 -10 145
-14 160 -5 13 9 18 152 4 161 -15 9 -127 15 -152 8z m119 -56 c5 -11 6 -34 4
-51 -4 -29 -7 -30 -58 -32 l-53 -2 -4 50 c-1 27 -2 52 -1 57 2 4 26 5 54 3 40
-2 52 -7 58 -25z"/>
<path d="M2535 1861 c-3 -5 -1 -12 5 -16 12 -7 30 2 30 16 0 12 -27 12 -35 0z"/>
<path d="M2736 1848 c-11 -56 -14 -161 -5 -184 8 -22 12 -24 24 -14 8 7 15 23
15 36 0 36 15 36 35 -2 34 -64 61 -35 29 32 -15 32 -15 35 5 60 12 15 21 31
21 35 0 19 -40 7 -59 -17 l-21 -27 0 36 c0 19 -3 42 -6 51 -9 24 -33 19 -38
-6z"/>
<path d="M2621 1806 c-14 -15 -25 -42 -28 -69 -4 -36 -1 -48 20 -73 25 -28 27
-28 54 -14 15 9 29 26 31 38 3 22 -12 30 -23 12 -13 -22 -35 -10 -35 19 0 56
22 82 34 39 5 -22 6 -22 23 -5 16 16 16 20 3 45 -21 36 -50 39 -79 8z"/>
<path d="M2382 1795 c-17 -36 -15 -96 4 -123 10 -15 25 -22 49 -22 43 0 65 29
65 86 0 55 -8 74 -31 74 -17 0 -19 -7 -18 -50 1 -28 -3 -56 -9 -62 -15 -15
-21 1 -24 66 -3 56 -19 69 -36 31z"/>
<path d="M2533 1803 c-13 -30 -9 -131 5 -145 22 -22 32 10 30 86 -3 70 -20 98
-35 59z"/>
<path d="M2040 1445 l0 -125 30 0 c28 0 30 2 30 40 0 54 27 54 58 0 18 -32 28
-40 51 -40 42 0 43 9 10 55 l-31 43 21 21 c14 14 21 34 21 60 0 56 -25 71
-117 71 l-73 0 0 -125z m111 75 c37 -20 17 -70 -28 -70 -20 0 -23 5 -23 40 0
43 13 50 51 30z"/>
<path d="M2542 1538 c-30 -15 -38 -52 -17 -84 18 -28 14 -54 -10 -54 -8 0 -15
-9 -15 -20 0 -29 45 -26 75 5 30 29 31 39 5 73 l-20 25 21 23 c34 36 10 55
-39 32z"/>
<path d="M3080 1530 c-24 -24 -26 -63 -5 -80 21 -17 19 -37 -4 -45 -26 -8 -35
-34 -15 -42 27 -10 68 11 78 39 9 26 6 39 -16 70 -10 14 -8 20 12 36 13 11 20
24 16 30 -11 18 -44 14 -66 -8z"/>
<path d="M2391 1514 c-41 -53 -13 -154 43 -154 22 0 66 33 66 50 0 15 -21 23
-33 11 -13 -13 -47 -15 -47 -3 0 4 13 13 30 19 19 7 31 20 36 39 9 36 -6 58
-43 62 -23 2 -36 -3 -52 -24z m59 -23 c0 -12 -20 -25 -27 -18 -7 7 6 27 18 27
5 0 9 -4 9 -9z"/>
<path d="M2812 1533 c-7 -3 -19 -18 -27 -33 -36 -69 1 -161 59 -146 56 14 73
129 25 169 -21 17 -34 20 -57 10z m38 -94 c0 -28 -4 -39 -12 -37 -14 5 -23 51
-14 74 10 27 26 4 26 -37z"/>
<path d="M2914 1515 c-7 -30 -1 -141 9 -151 3 -4 13 -4 22 -1 10 5 15 20 15
50 0 24 7 52 15 63 13 17 14 12 15 -54 0 -54 3 -73 13 -70 36 13 52 141 21
173 -9 9 -23 14 -30 11 -8 -3 -21 -9 -29 -12 -8 -3 -15 -1 -15 5 0 22 -30 10
-36 -14z"/>
<path d="M3181 1514 c-41 -53 -13 -154 43 -154 22 0 66 33 66 50 0 15 -21 23
-33 11 -13 -13 -47 -15 -47 -3 0 4 13 13 30 19 19 7 31 20 36 39 9 36 -6 58
-43 62 -23 2 -36 -3 -52 -24z m59 -23 c0 -12 -20 -25 -27 -18 -7 7 6 27 18 27
5 0 9 -4 9 -9z"/>
<path d="M2625 1519 c-10 -16 -14 -113 -8 -174 6 -52 12 -70 23 -70 10 0 16
13 18 43 3 39 5 42 32 42 38 0 60 32 60 88 0 69 -12 82 -71 79 -28 -1 -52 -5
-54 -8z m83 -68 c5 -32 -13 -48 -33 -31 -18 15 -20 46 -2 53 20 9 32 2 35 -22z"/>
<path d="M2111 1300 c-58 -14 -66 -30 -69 -140 -4 -98 -3 -100 21 -111 35 -16
117 20 117 52 0 20 -4 21 -40 16 -52 -7 -55 17 -4 38 47 19 44 51 -4 49 -45
-3 -41 20 7 39 46 19 57 33 41 52 -14 16 -19 17 -69 5z"/>
<path d="M2728 1259 c-12 -34 -56 -58 -69 -38 -4 8 -22 10 -48 6 -23 -3 -41
-1 -41 4 0 5 -7 9 -15 9 -20 0 -26 -32 -23 -120 3 -67 5 -75 23 -75 17 0 21 8
25 57 3 31 11 63 18 70 15 15 15 11 16 -71 1 -42 5 -66 14 -68 18 -7 42 58 42
111 0 39 2 44 20 39 17 -5 20 -14 20 -69 0 -57 3 -65 25 -80 17 -11 33 -14 52
-9 16 5 37 7 49 6 28 -3 84 45 84 72 0 11 -10 32 -22 45 l-23 24 30 24 c22 17
27 26 19 34 -19 19 -66 7 -87 -21 l-19 -27 23 -42 c25 -45 22 -53 -28 -66 -38
-10 -53 2 -53 43 0 44 6 55 38 72 19 10 21 15 11 27 -6 8 -18 14 -26 14 -9 0
-13 6 -9 15 3 8 3 22 0 30 -10 25 -34 17 -46 -16z"/>
<path d="M3411 1108 l4 -153 -207 -3 c-176 -2 -208 -5 -208 -17 0 -13 32 -15
210 -16 116 -1 216 -2 223 -3 9 -1 13 41 15 172 2 170 2 172 -19 172 -21 0
-22 -2 -18 -152z"/>
<path d="M2417 1239 c-50 -29 -63 -133 -22 -174 13 -14 31 -25 39 -25 27 0 65
23 71 41 9 28 -3 41 -25 29 -22 -12 -50 -13 -50 -2 0 4 13 12 29 18 18 7 32
23 39 43 10 29 9 35 -13 57 -26 26 -40 29 -68 13z m43 -54 c0 -8 -2 -15 -4
-15 -2 0 -12 -3 -21 -7 -15 -5 -16 -3 -6 15 13 25 31 29 31 7z"/>
<path d="M2199 1218 c-3 -39 5 -79 26 -125 35 -77 56 -73 100 19 19 40 35 83
35 96 0 39 -32 22 -62 -33 -23 -42 -28 -47 -34 -30 -23 64 -35 85 -48 85 -9 0
-16 -6 -17 -12z"/>
<path d="M3185 1183 c-32 -8 -35 -15 -36 -97 -1 -56 3 -81 12 -87 21 -13 173
-11 187 3 7 7 12 42 12 88 0 46 -5 81 -12 88 -12 12 -121 15 -163 5z m135 -93
l0 -60 -70 0 -70 0 0 53 c0 30 3 57 7 60 3 4 35 7 70 7 l63 0 0 -60z"/>
<path d="M2936 1062 c-9 -14 21 -35 40 -28 8 3 14 12 12 19 -6 15 -44 22 -52
9z"/>
</g>
</svg>
